<?xml version="1.0" standalone="no"?>
<!DOCTYPE svg PUBLIC "-//W3C//DTD SVG 20010904//EN"
 "http://www.w3.org/TR/2001/REC-SVG-20010904/DTD/svg10.dtd">
<svg version="1.0" xmlns="http://www.w3.org/2000/svg"
 width="260.000000pt" height="260.000000pt" viewBox="0 0 260.000000 260.000000"
 preserveAspectRatio="xMidYMid meet">
<metadata>
Created by potrace 1.11, written by Peter Selinger 2001-2013
</metadata>
<g transform="translate(0.000000,260.000000) scale(0.100000,-0.100000)"
fill="#000000" stroke="none">
<path d="M908 2166 c-15 -6 -37 -22 -48 -34 -20 -21 -80 -32 -80 -14 0 4 -25
13 -56 20 -52 10 -63 9 -128 -12 -71 -24 -71 -24 -102 -5 -64 39 -164 31 -172
-14 -7 -37 69 -93 151 -112 49 -11 51 -13 56 -51 5 -38 6 -109 2 -334 -1 -104
17 -242 39 -300 1 -3 2 -9 1 -14 -2 -10 13 -48 30 -76 5 -8 12 -23 15 -32 4
-10 12 -18 20 -18 7 0 29 -16 48 -35 20 -19 40 -35 45 -35 6 0 15 -8 20 -19 6
-10 22 -22 36 -25 14 -4 25 -14 25 -24 1 -9 3 -87 6 -172 3 -85 5 -177 5 -204
-1 -56 -17 -122 -31 -131 -6 -3 -10 -14 -10 -23 0 -9 -7 -30 -15 -46 -18 -34
-12 -46 21 -46 13 0 24 -4 24 -10 0 -15 66 -23 106 -13 36 8 39 12 64 88 17
49 24 88 20 100 -30 84 21 385 65 385 7 0 16 12 19 28 9 38 47 83 71 82 207
-6 413 -2 430 10 6 3 19 7 30 7 11 1 41 9 67 17 26 9 53 15 60 14 7 -2 12 3
11 10 -4 16 8 15 34 -3 12 -9 20 -22 17 -29 -4 -9 7 -18 30 -26 38 -12 95 -74
114 -125 6 -16 13 -49 14 -72 1 -31 6 -43 17 -43 11 0 12 -3 4 -8 -13 -8 -19
-36 -33 -146 -5 -42 -20 -93 -39 -130 -16 -33 -28 -62 -26 -64 1 -2 17 -5 35
-7 41 -5 46 -11 30 -30 -24 -29 -5 -46 47 -40 55 5 65 15 82 73 6 23 16 42 20
42 18 0 23 60 26 266 2 189 1 214 -16 249 -24 49 -24 61 0 77 11 8 22 27 25
42 3 15 11 38 19 50 8 11 13 29 11 39 -1 10 2 32 7 50 6 18 12 50 13 72 2 22
13 64 25 93 26 66 27 112 1 180 -20 52 -27 63 -62 103 -10 10 -18 26 -18 34 0
8 -6 15 -13 15 -7 0 -24 13 -37 30 -14 16 -31 29 -37 30 -7 0 -13 5 -13 11 0
6 -6 9 -14 6 -7 -3 -19 0 -25 6 -6 6 -19 12 -28 13 -10 1 -49 9 -86 18 -37 9
-72 14 -78 11 -5 -4 -11 0 -14 7 -4 9 -20 12 -50 10 -28 -3 -45 0 -45 7 0 18
-18 12 -25 -8 -6 -20 -6 -20 -26 0 -21 21 -119 28 -119 8 0 -8 -4 -8 -12 -2
-18 14 -85 16 -93 3 -5 -8 -11 -7 -21 1 -10 9 -14 9 -14 0 0 -16 -42 -31 -57
-19 -7 5 -12 5 -15 -1 -1 -6 -13 -12 -25 -14 -11 -1 -28 -9 -37 -16 -9 -7 -22
-11 -31 -8 -8 4 -17 3 -19 -2 -10 -15 -137 -10 -206 8 -39 10 -70 16 -70 12 0
-3 -12 14 -27 39 -15 25 -30 47 -35 50 -4 3 13 11 37 18 31 8 60 27 90 57 46
45 57 79 33 103 -15 15 -74 14 -110 -2z"/>
<path d="M485 1193 c-13 -12 -16 -27 -12 -58 6 -40 4 -43 -26 -56 -48 -21 -57
-51 -60 -204 -2 -140 4 -165 37 -152 21 8 30 -25 28 -110 -1 -40 5 -93 13
-120 13 -42 13 -49 -1 -65 -15 -16 -12 -17 45 -17 67 1 77 7 57 35 -10 13 -11
25 -4 44 16 40 20 63 18 90 -8 85 1 146 22 142 35 -6 49 82 38 238 -5 82 -16
104 -56 119 -34 12 -35 14 -29 55 10 64 -31 98 -70 59z m49 -45 c-2 -18 -6
-38 -8 -44 -7 -17 6 -31 47 -47 20 -9 37 -22 38 -29 1 -7 3 -31 5 -53 1 -22 4
-78 5 -123 1 -87 -9 -115 -34 -94 -11 10 -16 0 -25 -51 -6 -34 -9 -80 -7 -102
2 -22 -2 -63 -10 -92 -8 -28 -12 -58 -9 -66 4 -12 0 -14 -17 -10 -13 4 -18 8
-11 11 11 3 10 8 -1 21 -22 24 -31 69 -32 146 -2 141 -4 152 -22 152 -10 0
-23 -7 -30 -16 -10 -13 -13 -4 -14 49 -1 85 1 172 6 196 2 10 4 25 4 32 1 7
21 22 46 34 33 16 44 27 39 38 -3 8 -8 30 -11 48 -5 29 -3 32 19 32 23 0 25
-4 22 -32z"/>
</g>
</svg>
