<?xml version="1.0" encoding="utf-8"?>
<!-- Generator: Adobe Illustrator 22.0.1, SVG Export Plug-In . SVG Version: 6.00 Build 0)  -->
<svg version="1.1" id="Layer_1" xmlns="http://www.w3.org/2000/svg" xmlns:xlink="http://www.w3.org/1999/xlink" x="0px" y="0px"
	 viewBox="0 0 54.75 66.25" style="enable-background:new 0 0 54.75 66.25;" xml:space="preserve">
<g>
	<path d="M3.66827,12.14136l22.87738,4.96851v21.21021l-3.37506,1.12872l-4.24103-1.97998l4.26154-1.37579l0.03485-1.24304
		l0.08868-0.02869L20.328,33.37756L8.03607,37.33453l0.0321,0.01416h-0.0116v1.3111l2.9314,1.37286l1.52661-0.49292l4.26984,2.04468
		L4.95142,45.54163l-0.00153-0.00116v0.45215l7.62317,3.82275l12.38678-4.31891l14.98468,7.17188l0.01794,0.00861l0.40356-0.11768
		l0.03705-0.11932l-0.43146,0.12573l-14.87189-7.11804l2.9823-1.03986l11.91638,5.57556l1.29321-0.40234l-1.61566,5.2016
		l-0.00598,0.01849l0.53961,1.03009l0.48792,0.16449L40.69995,56l0.83051-0.828l1.03003-3.25262l0.76898-0.22418l0.00012-2.20428
		l0.87512-2.76306l0.00543-0.01801L43.776,45.66852l-0.00098,0.00067l0.00012-0.00018l-0.4317-0.12238l-0.9989,0.67737
		l-0.013,0.00891l-1.00128,3.22375l-1.3241,0.40997l-2.2403-1.04724l2.98401-1.03662l0.09296,0.04504l0.86566,0.40466
		l0.03137-0.10107l-1.04071-0.4859l-3.28253-4.43854L37.383,43.21844l-2.11859-0.92664l-2.79169,1.01837l-0.05383-0.02338v0.48792
		l-1.07709-0.50354l13.43451-4.68335v-0.49017l0.00226-0.00189l-7.5296-3.34058l-0.01855-0.00818l-10.5672,3.53381V17.13544
		l22.91541,4.97681l0.02435-0.11469L3.69269,12.02667L3.66827,12.14136z M43.2251,51.61688l-0.62671,0.1828l0.62671-1.97894
		V51.61688z M44.10132,46.71484l-2.65192,8.39319l-0.7265,0.724l-0.52515-0.93835l2.64185-8.4162l0.89142-0.65009L44.10132,46.71484
		z M42.40991,46.29089l0.94952-0.64435l0.32196,0.09088l-0.91583,0.66711l-0.01398,0.00995l-2.65833,8.46918l-0.00641,0.02094
		l0.52887,0.9519l-0.35413-0.12231l-0.49164-0.94312L42.40991,46.29089z M40.62207,47.71686l-2.97418,1.03308l-3.05493-4.47003
		l2.7851-0.94965L40.62207,47.71686z M35.26086,42.40417l1.97577,0.86414l-2.72327,0.92847l-1.90167-0.82617L35.26086,42.40417z
		 M32.52319,43.44592l1.95337,0.84869l3,4.38959l-1.62433-0.75946l-3.32904-1.56665V43.44592z M23.02692,39.49689l-3.02777,1.01257
		l-4.2901-2.00092l3.07477-0.99261L23.02692,39.49689z M20.32019,33.48975l2.71472,1.31219l-11.82489,3.81903l-2.88086-1.27118
		L20.32019,33.48975z M10.99506,39.92078l-2.83417-1.32739v-1.20374l3.04346,1.34277l11.9162-3.84839l-0.03168,1.13239
		L10.99506,39.92078z M12.65887,39.49323l2.90436-0.93768l4.29218,2.00195l-2.92865,0.97931L12.65887,39.49323z M26.54565,38.43018
		v0.64093L6.00812,45.93878l0.00726,0.02173l-0.79321-0.39935L26.54565,38.43018z M32.41888,43.88977v2.42999l-4.1955-1.96124
		l2.97723-1.03815L32.41888,43.88977z M44.672,38.51379L12.55878,49.70642L5.0542,45.92834v-0.33539l7.47046,3.76166
		l0.01978,0.01007L44.672,38.13416V38.51379z M26.66321,38.39093l10.56189-3.53204l0.82385,0.36548l-11.38574,3.80737V38.39093z
		 M26.66321,39.15601l11.47638-3.83765l-0.02112-0.06317l6.37677,2.8291l-31.94342,11.1673l-6.41699-3.23096l20.41083-6.82526
		v1.88519h0.11755V39.15601z"/>
	<polygon points="2.33417,10.3291 51.69196,21.08356 51.71631,20.96887 2.35858,10.21442 	"/>
	<polygon points="3.26471,1.90234 3.2403,2.01703 53.52423,12.47754 53.54865,12.36285 	"/>
</g>
</svg>
